<?xml version="1.0" encoding="utf-8"?>
<!-- Designed by Vexels.com - 2020 All Rights Reserved - https://vexels.com/terms-and-conditions/  -->
<svg version="1.1" id="Capa_1" xmlns="http://www.w3.org/2000/svg" xmlns:xlink="http://www.w3.org/1999/xlink" x="0px" y="0px"
	 viewBox="0 0 1200 1200" enable-background="new 0 0 1200 1200" xml:space="preserve">
<g>
	<path fill="#494949" d="M314.598,822.491c0.625-119.945,67.907-228.911,129.272-332.548
		c69.536-117.438,116.108-230.355,103.506-368.691c-2.755-30.244-1.984-60.033,31.789-69.211
		c35.133-9.547,54.841,15.954,67.135,44.5c36.436,84.607,36.254,173.365,0.391,254.697
		c-46.774,106.076-107.624,205.89-160.749,309.254c-26.199,50.975-57.869,101.712-70.706,156.393
		c-26.402,112.464,46.759,214.814,128.025,284.525c8.875,7.613,18.886,16.811,18.09,28.478
		c-0.868,12.712-15.205,20.985-27.913,20.039c-55.651-4.146-120.881-84.31-150.665-125.506
		c-40.9-56.573-66.792-123.944-68.122-194.162C314.602,827.664,314.584,825.075,314.598,822.491z"/>
	<path fill="#494949" d="M660.507,631.567c4.441,34.542,0.11,75.578-1.611,93.393c-10.852,112.357,42.571,223.843,12.923,335.701
		c-7.852,29.625-63.919,84.827-53.283,21.069c10.171-60.967,1.531-129.349-32.191-181.72
		c-56.769-88.164-89.118-200.94-18.498-292.032c9.826-12.674,21.806-24.568,37.067-29.534
		C641.661,566.495,655.868,595.489,660.507,631.567z"/>
	<path fill="#494949" d="M885.407,782.676c-5.147,88.669-23.44,173.854-75.184,246.455c-23.968,33.628-60.784,58.403-93.305,85.346
		c-5.294,4.386-20.121,1.708-27.452-2.764c-3.392-2.069-2.47-18.4,1.778-24.715c77.431-115.121,99.15-243.256,92.493-378.992
		c-1.478-30.13-0.657-64.854,36.571-76.025c22.677-6.805,53.894,31.43,59.28,70.793C883.2,729.179,883.58,756.026,885.407,782.676z"
		/>
	<path fill="#494949" d="M783.181,614.775c0.288,54.757-27.491,108.678-58.906,151.633c-16.137,22.021-41.775,25.724-43.933-7.009
		c-3.071-46.592-9.76-185.471,41.462-213.929c37.26-20.701,59.523,31.033,61.158,61.758
		C783.095,609.745,783.167,612.261,783.181,614.775z"/>
</g>
</svg>
